<svg version="1.1" id="Layer_1" xmlns="http://www.w3.org/2000/svg" xmlns:xlink="http://www.w3.org/1999/xlink" x="0px" y="0px"
     width="556px" height="389px" viewBox="0 0 556 389" enable-background="new 0 0 556 389" xml:space="preserve">
<g>
    <path fill="#444444" d="M556,47c0,6.627-5.373,12-12,12H12C5.373,59,0,53.627,0,47V12C0,5.373,5.373,0,12,0h532
		c6.627,0,12,5.373,12,12V47z"/>
    <path fill="#444444" d="M556,212c0,6.627-5.373,12-12,12H12c-6.627,0-12-5.373-12-12v-35c0-6.627,5.373-12,12-12h532
		c6.627,0,12,5.373,12,12V212z"/>
    <path fill="#444444" d="M556,377c0,6.627-5.373,12-12,12H12c-6.627,0-12-5.373-12-12v-35c0-6.627,5.373-12,12-12h532
		c6.627,0,12,5.373,12,12V377z"/>
</g>
</svg>
