<?xml version="1.0" encoding="utf-8"?>
<!-- Generator: Adobe Illustrator 16.0.0, SVG Export Plug-In . SVG Version: 6.00 Build 0)  -->
<!DOCTYPE svg PUBLIC "-//W3C//DTD SVG 1.1//EN" "http://www.w3.org/Graphics/SVG/1.1/DTD/svg11.dtd">
<svg version="1.1" id="Layer_1" xmlns="http://www.w3.org/2000/svg" xmlns:xlink="http://www.w3.org/1999/xlink" x="0px" y="0px"
	 width="233.053px" height="264.029px" viewBox="0 0 233.053 264.029" enable-background="new 0 0 233.053 264.029"
	 xml:space="preserve">
<path d="M56.816,154.302c0,0-3.266-1.389-4.734,5.061c0,0-1.388,5.878-5.388,12.571c0,0-1.307,9.715-4.082,14.286
	c0,0-2.204,6.041-1.796,9.959c0,0,0.408,5.143-1.061,8.898c0,0,0.734,5.469,0,11.592c0,0,3.02,24.734,11.918,27.51h2.204
	c0,0,6.286-0.408,6.367,3.755l-10.286,1.062c0,0,0.408,4.082,5.062,6.041c0,0,6.775,1.143,7.755,6.204h-4.408
	c0,0,1.389,0.979,1.878,2.693h-9.959c0,0-4.408,1.388-5.062-6.448c0,0-3.021-1.552-4.081-7.348c0,0-4.082-16.408-9.96-28.571
	c0,0-5.061-6.285-6.448-14.449c0,0-5.633-6.04-1.878-17.143c0,0,0.816-3.102,0.326-6.367c0,0-1.633,4.082-4.081,5.633
	c0,0,2.204-3.266,2.448-9.225c0,0-1.143,2.775-3.02,3.755c0,0,1.469-3.184,1.959-7.837c0,0-1.47,3.185-3.184,3.837
	c0,0,3.021-5.306,2.775-9.388c0,0-1.47,3.103-4,4.979c0,0,2.775-3.184,2.367-8.163c0,0-0.245,1.796-3.266,3.184
	c0,0,1.552-6.938,1.633-10.775c0,0-1.225,3.347-3.592,4.734c0,0,1.47-0.081,0.816-8.244c0,0-0.653,1.877-2.367,2.122
	c0,0,1.714-3.755,0.653-11.021c0,0-12.735-13.959-8.979-34.857c0,0-2.368-0.326-3.348,2.204c0,0,1.062-7.429,5.796-12.734
	c0,0-1.551-0.408-3.265,1.796c0,0,3.428-8.408,11.918-11.592c0,0-2.122-0.245-4.816,1.143c0,0,5.143-7.347,21.796-7.755
	c0,0,15.592-7.266,33.143-1.143c0,0,19.429,3.429,43.837,3.755c0,0-0.816-0.816-3.102-1.388c0,0,15.51,0.816,26.856,5.062
	c0,0,5.144-1.796,14.204-0.49c0,0,13.796,0.734,19.021,2.694c0,0,3.674,1.551,3.429-3.429c0,0-8.082-60.327,19.184-73.225
	c0,0,12.164-20.082,21.225-16.898c0,0,2.123,2.123-4.082,7.348c0,0,8.327-6.857,10.205-4.082c0,0-0.653,4.571-12.327,12.163
	c0,0,8.571,4.082,10.938,6.367l15.021,6.775c0,0,4.49,3.511,3.429,8.49c0,0,2.449,5.714-2.204,4.653c0,0,0.408,6.285-8.979,2.448
	c0,0-8.49,3.266-17.143,2.123c0,0-5.143,0.408-3.51,5.796c0,0,0.407,4.979,1.877,6.204c0,0-1.959-0.327-2.367-1.715
	c0,0-2.857,4.98,1.225,10.939c0,0-1.47,0-2.286-1.633c0,0-0.245,12,5.144,14.693c0,0-3.103,0.98-4.082-0.571
	c0,0,6.285,11.919,4.245,24.979c0,0-0.816-3.918-3.266-5.469c0,0,1.714,35.755-41.306,62.775c0,0-2.694,0.245-4.408,34.53
	c0,0,2.122,5.959-1.47,15.919c0,0-2.204,24.979,5.633,33.796c0,0,1.796,1.388,5.061,1.224c0,0,3.593,0.408,4.164,3.429l-2.368,0.082
	c0,0,1.715,1.47,2.123,2.857c0,0-4.163,1.959-12.49,0.979c0,0-3.918-0.816-5.143-5.143c0,0-2.938,0.571-2.204-5.47l-1.714-28.816
	c0,0-2.857-13.225-3.021-18.449l-1.552,7.674c0,0,1.47,7.429-2.612,13.959c0,0-7.428,27.184,1.225,34.775
	c0,0,1.715,0.735,4.49,1.225c0,0,3.592,1.225,4.489,5.062l-3.673,0.489c0,0,0.734,0,1.062,2.286c0,0-10.776,1.796-14.939-1.551
	c0,0-1.959-2.123-1.143-5.633c0,0,0.489-1.715-0.816-4.816c0,0-1.796-3.021-0.408-7.919c0,0,2.857-16.326,2.367-26.204
	c0,0-1.714-5.306-1.061-12.734c0.652-7.347-3.021-30.775-3.021-30.775s-6.449-0.816-5.47,6.938c0,0-3.347-1.306-4.979-5.143
	c0,0-1.388,2.286,0.489,5.633c0,0-3.673-0.653-5.632-3.511c0,0,0,3.103,1.877,4.898c0,0-5.388,1.062-8.571-3.429
	c0,0-0.245,1.796,1.062,3.266c0,0-5.225,0.816-9.307-4.49c0,0-1.388,1.959,0.245,4.49c0,0-4.49,0.326-6.286-4
	c0,0-3.102,1.388-1.877,4.897c0,0-3.674-0.816-8.571-8.571c0,0-0.735,1.551,0.408,4.49c0,0-5.47-2.531-8.98-10.531
	c0,0-1.224,1.225-0.244,3.674C72.49,171.526,60.163,162.628,56.816,154.302z"/>
</svg>
